<?xml version="1.0" encoding="utf-8"?>
<!-- Generator: Adobe Illustrator 18.0.0, SVG Export Plug-In . SVG Version: 6.00 Build 0)  -->
<!DOCTYPE svg PUBLIC "-//W3C//DTD SVG 1.1//EN" "http://www.w3.org/Graphics/SVG/1.1/DTD/svg11.dtd">
<svg version="1.1" id="Layer_1" xmlns="http://www.w3.org/2000/svg" xmlns:xlink="http://www.w3.org/1999/xlink" x="0px" y="0px"
	 viewBox="0 -100 980 700" enable-background="new 0 -100 980 700" xml:space="preserve">
<line fill="none" stroke="#000000" stroke-miterlimit="10" x1="66.8" y1="-108.7" x2="66.8" y2="580"/>
<line fill="none" stroke="#B5B5B6" stroke-miterlimit="10" x1="-10" y1="579.3" x2="986.5" y2="579.3"/>
<line fill="none" stroke="#595858" stroke-miterlimit="10" x1="708.2" y1="-106.1" x2="708.2" y2="580"/>
<line fill="none" stroke="#595858" stroke-miterlimit="10" x1="850.8" y1="-116.6" x2="850.8" y2="580"/>
<line fill="none" stroke="#595858" stroke-miterlimit="10" x1="565.7" y1="-106.1" x2="565.7" y2="580"/>
<line fill="none" stroke="#595858" stroke-miterlimit="10" x1="423.2" y1="-106.1" x2="423.2" y2="580"/>
<line fill="none" stroke="#595858" stroke-miterlimit="10" x1="280.6" y1="-106.1" x2="280.6" y2="580"/>
<line fill="none" stroke="#7D7D7D" stroke-miterlimit="10" x1="209.4" y1="-106.1" x2="209.4" y2="580"/>
<line fill="none" stroke="#7D7D7D" stroke-miterlimit="10" x1="173.7" y1="-106.1" x2="173.7" y2="580"/>
<line fill="none" stroke="#7D7D7D" stroke-miterlimit="10" x1="245" y1="-106.1" x2="245" y2="580"/>
<line fill="none" stroke="#7D7D7D" stroke-miterlimit="10" x1="351.9" y1="-106.1" x2="351.9" y2="580"/>
<line fill="none" stroke="#7D7D7D" stroke-miterlimit="10" x1="316.3" y1="-106.1" x2="316.3" y2="580"/>
<line fill="none" stroke="#7D7D7D" stroke-miterlimit="10" x1="387.5" y1="-106.1" x2="387.5" y2="580"/>
<line fill="none" stroke="#7D7D7D" stroke-miterlimit="10" x1="494.4" y1="-107.1" x2="494.4" y2="580"/>
<line fill="none" stroke="#7D7D7D" stroke-miterlimit="10" x1="458.8" y1="-106.1" x2="458.8" y2="580"/>
<line fill="none" stroke="#7D7D7D" stroke-miterlimit="10" x1="530.1" y1="-106.1" x2="530.1" y2="580"/>
<line fill="none" stroke="#7D7D7D" stroke-miterlimit="10" x1="637" y1="-106.1" x2="637" y2="580"/>
<line fill="none" stroke="#7D7D7D" stroke-miterlimit="10" x1="601.3" y1="-106.1" x2="601.3" y2="580"/>
<line fill="none" stroke="#7D7D7D" stroke-miterlimit="10" x1="672.6" y1="-106.1" x2="672.6" y2="580"/>
<line fill="none" stroke="#7D7D7D" stroke-miterlimit="10" x1="779.5" y1="-106.1" x2="779.5" y2="580"/>
<line fill="none" stroke="#7D7D7D" stroke-miterlimit="10" x1="743.9" y1="-106.1" x2="743.9" y2="580"/>
<line fill="none" stroke="#7D7D7D" stroke-miterlimit="10" x1="815.1" y1="-106.1" x2="815.1" y2="580"/>
<line fill="none" stroke="#7BC791" stroke-miterlimit="10" x1="-10" y1="391.9" x2="986.5" y2="391.9"/>
<line fill="none" stroke="#7BC791" stroke-miterlimit="10" x1="-10" y1="485.6" x2="986.5" y2="485.6"/>
<line fill="none" stroke="#2AA4DD" stroke-width="3" stroke-miterlimit="10" x1="-10" y1="560.6" x2="986.5" y2="560.6"/>
<line fill="none" stroke="#7BC791" stroke-miterlimit="10" x1="-10" y1="298.3" x2="986.5" y2="298.3"/>
<line fill="none" stroke="#7BC791" stroke-miterlimit="10" x1="-10" y1="167.1" x2="986.5" y2="167.1"/>
<line fill="none" stroke="#7BC791" stroke-miterlimit="10" x1="-10" y1="110.9" x2="986.5" y2="110.9"/>
<line fill="none" stroke="#7BC791" stroke-miterlimit="10" x1="-10" y1="504.4" x2="986.5" y2="504.4"/>
<line fill="none" stroke="#7BC791" stroke-miterlimit="10" x1="-10" y1="541.8" x2="986.5" y2="541.8"/>
<line fill="none" stroke="#7BC791" stroke-miterlimit="10" x1="-10" y1="523.1" x2="986.5" y2="523.1"/>
<line fill="none" stroke="#7BC791" stroke-miterlimit="10" x1="-10" y1="466.9" x2="986.5" y2="466.9"/>
<line fill="none" stroke="#7BC791" stroke-miterlimit="10" x1="-10" y1="448.1" x2="986.5" y2="448.1"/>
<line fill="none" stroke="#7BC791" stroke-miterlimit="10" x1="-10" y1="429.4" x2="986.5" y2="429.4"/>
<line fill="none" stroke="#7BC791" stroke-miterlimit="10" x1="-10" y1="410.7" x2="986.5" y2="410.7"/>
<line fill="none" stroke="#7BC791" stroke-miterlimit="10" x1="-10" y1="335.7" x2="986.5" y2="335.7"/>
<line fill="none" stroke="#7BC791" stroke-miterlimit="10" x1="-10" y1="373.2" x2="986.5" y2="373.2"/>
<line fill="none" stroke="#7BC791" stroke-miterlimit="10" x1="-10" y1="354.5" x2="986.5" y2="354.5"/>
<line fill="none" stroke="#7BC791" stroke-miterlimit="10" x1="-10" y1="317" x2="986.5" y2="317"/>
<line fill="none" stroke="#7BC791" stroke-miterlimit="10" x1="-10" y1="279.5" x2="986.5" y2="279.5"/>
<line fill="none" stroke="#7BC791" stroke-miterlimit="10" x1="-10" y1="260.8" x2="986.5" y2="260.8"/>
<line fill="none" stroke="#7BC791" stroke-miterlimit="10" x1="-10" y1="242.1" x2="986.5" y2="242.1"/>
<line fill="none" stroke="#7BC791" stroke-miterlimit="10" x1="-10" y1="223.3" x2="986.5" y2="223.3"/>
<line fill="none" stroke="#7BC791" stroke-miterlimit="10" x1="-10" y1="129.6" x2="986.5" y2="129.6"/>
<line fill="none" stroke="#7BC791" stroke-miterlimit="10" x1="-10" y1="204.6" x2="986.5" y2="204.6"/>
<line fill="none" stroke="#7BC791" stroke-miterlimit="10" x1="-10" y1="185.9" x2="986.5" y2="185.9"/>
<line fill="none" stroke="#7BC791" stroke-miterlimit="10" x1="-10" y1="148.4" x2="986.5" y2="148.4"/>
<text transform="matrix(1 0 0 1 10.004 -84)" fill="#666666" font-family="'GillSansMT'" font-size="10">price in USD</text>
<text transform="matrix(1 0 0 1 50.1349 574)" fill="#666666" font-family="'GillSansMT'" font-size="12">$0</text>
<text transform="matrix(1 0 0 1 412.004 592)" fill="#666666" font-family="'ArialMT'" font-size="10">2000</text>
<text transform="matrix(1 0 0 1 590.504 592)" fill="#666666" font-family="'ArialMT'" font-size="10">2005</text>
<text transform="matrix(1 0 0 1 767.6704 592)" fill="#666666" font-family="'ArialMT'" font-size="10">2010</text>
<text transform="matrix(1 0 0 1 56.004 592)" fill="#666666" font-family="'ArialMT'" font-size="10">1990</text>
<text transform="matrix(1 0 0 1 946.5042 592)" fill="#666666" font-family="'ArialMT'" font-size="10">2015</text>
<text transform="matrix(1 0 0 1 17.504 555.5)" fill="#666666" font-family="'GillSansMT'" font-size="12">$100,000</text>
<text transform="matrix(1 0 0 1 17.504 482)" fill="#666666" font-family="'GillSansMT'" font-size="12">$500,000</text>
<text transform="matrix(1 0 0 1 8.8732 389.5)" fill="#666666" font-family="'GillSansMT'" font-size="12">$1,000,000</text>
<text transform="matrix(1 0 0 1 5.3732 294)" fill="#666666" font-family="'GillSansMT'" font-size="12">$1,500,000</text>
<text transform="matrix(1 0 0 1 8.8732 201)" fill="#666666" font-family="'GillSansMT'" font-size="12">$2,000,000</text>
<text transform="matrix(1 0 0 1 8.8732 125)" fill="#666666" font-family="'GillSansMT'" font-size="12">$2,500,000</text>
<text transform="matrix(1 0 0 1 8.8732 33)" fill="#666666" font-family="'GillSansMT'" font-size="12">$3,000,000</text>
<text transform="matrix(1 0 0 1 8.8732 -61)" fill="#666666" font-family="'GillSansMT'" font-size="12">$3,500,000</text>
<line fill="none" stroke="#595858" stroke-miterlimit="10" x1="886.4" y1="-116.6" x2="886.4" y2="580"/>
<line fill="none" stroke="#595858" stroke-miterlimit="10" x1="922" y1="-116.6" x2="922" y2="580"/>
<line fill="none" stroke="#7BC791" stroke-miterlimit="10" x1="-10" y1="-76.4" x2="986.5" y2="-76.4"/>
<line fill="none" stroke="#7BC791" stroke-miterlimit="10" x1="-10" y1="73.4" x2="986.5" y2="73.4"/>
<line fill="none" stroke="#7BC791" stroke-miterlimit="10" x1="-10" y1="36" x2="986.5" y2="36"/>
<line fill="none" stroke="#7BC791" stroke-miterlimit="10" x1="-10" y1="-1.5" x2="986.5" y2="-1.5"/>
<line fill="none" stroke="#7BC791" stroke-miterlimit="10" x1="-10" y1="-39" x2="986.5" y2="-39"/>
<line fill="none" stroke="#7BC791" stroke-miterlimit="10" x1="-10" y1="92.2" x2="986.5" y2="92.2"/>
<text transform="matrix(1 0 0 1 234.1709 592)" fill="#666666" font-family="'ArialMT'" font-size="10">1995</text>
<line fill="none" stroke="#7D7D7D" stroke-miterlimit="10" x1="102.5" y1="-106.1" x2="102.5" y2="580"/>
<line fill="none" stroke="#7D7D7D" stroke-miterlimit="10" x1="138.1" y1="-106.1" x2="138.1" y2="580"/>
<line fill="none" stroke="#595858" stroke-miterlimit="10" x1="957.7" y1="-116.6" x2="957.7" y2="580"/>
<line fill="none" stroke="#7BC791" stroke-miterlimit="10" x1="-10" y1="-57.7" x2="986.5" y2="-57.7"/>
<line fill="none" stroke="#7BC791" stroke-miterlimit="10" x1="-8" y1="-20.2" x2="988.5" y2="-20.2"/>
<line fill="none" stroke="#7BC791" stroke-miterlimit="10" x1="-10" y1="17.2" x2="986.5" y2="17.2"/>
<line fill="none" stroke="#7BC791" stroke-miterlimit="10" x1="-8" y1="54.7" x2="988.5" y2="54.7"/>
</svg>
