<?xml version="1.0" encoding="utf-8"?>
<!-- Generator: Adobe Illustrator 18.0.0, SVG Export Plug-In . SVG Version: 6.00 Build 0)  -->
<!DOCTYPE svg PUBLIC "-//W3C//DTD SVG 1.1//EN" "http://www.w3.org/Graphics/SVG/1.1/DTD/svg11.dtd">
<svg version="1.1" id="Layer_1" xmlns="http://www.w3.org/2000/svg" xmlns:xlink="http://www.w3.org/1999/xlink" x="0px" y="0px"
	 viewBox="-206 46 1024 700" enable-background="new -206 46 1024 700" xml:space="preserve">
<line fill="none" stroke="#000000" stroke-miterlimit="10" x1="-129.9" y1="75.2" x2="-129.9" y2="732"/>
<line fill="none" stroke="#7D7D7D" stroke-miterlimit="10" x1="20.9" y1="75.2" x2="20.9" y2="732"/>
<line fill="none" stroke="#7D7D7D" stroke-miterlimit="10" x1="171.5" y1="75.2" x2="171.5" y2="732"/>
<line fill="none" stroke="#7D7D7D" stroke-miterlimit="10" x1="322.4" y1="75.2" x2="322.4" y2="732"/>
<line fill="none" stroke="#7D7D7D" stroke-miterlimit="10" x1="473" y1="75.2" x2="473" y2="732"/>
<line fill="none" stroke="#7D7D7D" stroke-miterlimit="10" x1="623.8" y1="75.2" x2="623.8" y2="732"/>
<line fill="none" stroke="#7D7D7D" stroke-miterlimit="10" x1="774.5" y1="75.2" x2="774.5" y2="732"/>
<line fill="none" stroke="#7BC791" stroke-miterlimit="10" x1="-197.2" y1="75.2" x2="795.7" y2="75.2"/>
<line fill="none" stroke="#7BC791" stroke-miterlimit="10" x1="-197.2" y1="94.2" x2="795.7" y2="94.2"/>
<line fill="none" stroke="#7BC791" stroke-miterlimit="10" x1="-197.2" y1="113.4" x2="795.7" y2="113.4"/>
<line fill="none" stroke="#7BC791" stroke-miterlimit="10" x1="-197.2" y1="132.4" x2="795.7" y2="132.4"/>
<line fill="none" stroke="#7BC791" stroke-miterlimit="10" x1="-197.2" y1="151.6" x2="795.7" y2="151.6"/>
<line fill="none" stroke="#7BC791" stroke-miterlimit="10" x1="-197.2" y1="170.6" x2="795.7" y2="170.6"/>
<line fill="none" stroke="#7BC791" stroke-miterlimit="10" x1="-197.2" y1="189.8" x2="795.7" y2="189.8"/>
<line fill="none" stroke="#7BC791" stroke-miterlimit="10" x1="-197.2" y1="208.8" x2="795.7" y2="208.8"/>
<line fill="none" stroke="#7BC791" stroke-miterlimit="10" x1="-197.2" y1="228" x2="795.7" y2="228"/>
<line fill="none" stroke="#7BC791" stroke-miterlimit="10" x1="-197.2" y1="247.2" x2="795.7" y2="247.2"/>
<line fill="none" stroke="#7BC791" stroke-miterlimit="10" x1="-197.2" y1="266.2" x2="795.7" y2="266.2"/>
<line fill="none" stroke="#7BC791" stroke-miterlimit="10" x1="-197.2" y1="285.4" x2="795.7" y2="285.4"/>
<line fill="none" stroke="#7BC791" stroke-miterlimit="10" x1="-197.2" y1="304.4" x2="795.7" y2="304.4"/>
<line fill="none" stroke="#7BC791" stroke-miterlimit="10" x1="-197.2" y1="323.6" x2="795.7" y2="323.6"/>
<line fill="none" stroke="#7BC791" stroke-miterlimit="10" x1="-197.2" y1="342.6" x2="795.7" y2="342.6"/>
<line fill="none" stroke="#7BC791" stroke-miterlimit="10" x1="-197.2" y1="361.8" x2="795.7" y2="361.8"/>
<line fill="none" stroke="#7BC791" stroke-miterlimit="10" x1="-197.2" y1="380.8" x2="795.7" y2="380.8"/>
<line fill="none" stroke="#7BC791" stroke-miterlimit="10" x1="-197.2" y1="400" x2="795.7" y2="400"/>
<line fill="none" stroke="#7BC791" stroke-miterlimit="10" x1="-197.2" y1="419.2" x2="795.7" y2="419.2"/>
<line fill="none" stroke="#7BC791" stroke-miterlimit="10" x1="-197.2" y1="438.2" x2="795.7" y2="438.2"/>
<line fill="none" stroke="#7BC791" stroke-miterlimit="10" x1="-197.2" y1="457.4" x2="795.7" y2="457.4"/>
<line fill="none" stroke="#7BC791" stroke-miterlimit="10" x1="-197.2" y1="476.4" x2="795.7" y2="476.4"/>
<line fill="none" stroke="#7BC791" stroke-miterlimit="10" x1="-197.2" y1="495.6" x2="795.7" y2="495.6"/>
<line fill="none" stroke="#7BC791" stroke-miterlimit="10" x1="-197.2" y1="514.7" x2="795.7" y2="514.7"/>
<line fill="none" stroke="#7BC791" stroke-miterlimit="10" x1="-197.2" y1="533.8" x2="795.7" y2="533.8"/>
<line fill="none" stroke="#7BC791" stroke-miterlimit="10" x1="-197.2" y1="552.9" x2="795.7" y2="552.9"/>
<line fill="none" stroke="#7BC791" stroke-miterlimit="10" x1="-197.2" y1="572.1" x2="795.7" y2="572.1"/>
<line fill="none" stroke="#7BC791" stroke-miterlimit="10" x1="-197.2" y1="591.2" x2="795.7" y2="591.2"/>
<line fill="none" stroke="#7BC791" stroke-miterlimit="10" x1="-197.2" y1="610.3" x2="795.7" y2="610.3"/>
<line fill="none" stroke="#7BC791" stroke-miterlimit="10" x1="-197.2" y1="629.5" x2="795.7" y2="629.5"/>
<line fill="none" stroke="#7BC791" stroke-miterlimit="10" x1="-197.2" y1="648.5" x2="795.7" y2="648.5"/>
<line fill="none" stroke="#7BC791" stroke-miterlimit="10" x1="-197.2" y1="667.7" x2="795.7" y2="667.7"/>
<line fill="none" stroke="#7BC791" stroke-miterlimit="10" x1="-197.2" y1="686.7" x2="795.7" y2="686.7"/>
<line fill="none" stroke="#2AA4DD" stroke-width="3" stroke-miterlimit="10" x1="-197.2" y1="705.9" x2="795.7" y2="705.9"/>
<line fill="none" stroke="#B5B5B6" stroke-miterlimit="10" x1="-197.2" y1="724.9" x2="795.7" y2="724.9"/>
<g id="text">
	<text transform="matrix(1 0 0 1 -197.249 58.0019)" fill="#666666" font-family="'ArialMT'" font-size="10.0598">price in USD</text>
	<text transform="matrix(1 0 0 1 -140.915 744.0752)" fill="#666666" font-family="'ArialMT'" font-size="10.0598">2010</text>
	<text transform="matrix(1 0 0 1 10.1304 744.0752)" fill="#666666" font-family="'ArialMT'" font-size="10.0598">2011</text>
	<text transform="matrix(1 0 0 1 160.4312 744.0752)" fill="#666666" font-family="'ArialMT'" font-size="10.0598">2012</text>
	<text transform="matrix(1 0 0 1 308.3076 744.0752)" fill="#666666" font-family="'ArialMT'" font-size="10.0598">20013</text>
	<text transform="matrix(1 0 0 1 461.7773 744.0752)" fill="#666666" font-family="'ArialMT'" font-size="10.0598">2014</text>
	<text transform="matrix(1 0 0 1 612.4502 744.0752)" fill="#666666" font-family="'ArialMT'" font-size="10.0598">2015</text>
	<text transform="matrix(1 0 0 1 -197.249 700.8184)" fill="#666666" font-family="'ArialMT'" font-size="10.0598">$100,000</text>
	<text transform="matrix(1 0 0 1 -197.249 627.3818)" fill="#666666" font-family="'ArialMT'" font-size="10.0598">$500,000</text>
	<text transform="matrix(1 0 0 1 -197.249 531.8145)" fill="#666666" font-family="'ArialMT'" font-size="10.0598">$1,000,000</text>
	<text transform="matrix(1 0 0 1 -197.249 436.2471)" fill="#666666" font-family="'ArialMT'" font-size="10.0598">$1,500,000</text>
	<text transform="matrix(1 0 0 1 -197.249 340.6792)" fill="#666666" font-family="'ArialMT'" font-size="10.0598">$2,000,000</text>
	<text transform="matrix(1 0 0 1 -197.249 245.1123)" fill="#666666" font-family="'ArialMT'" font-size="10.0598">$2,500,000</text>
	<text transform="matrix(1 0 0 1 -197.249 149.5444)" fill="#666666" font-family="'ArialMT'" font-size="10.0598">$3,000,000</text>
	<text transform="matrix(1 0 0 1 763.1221 744.0752)" fill="#666666" font-family="'ArialMT'" font-size="10.0598">2016</text>
</g>
<g id="legend">
	<rect x="-71.5" y="47.9" fill="#D95B43" width="15.1" height="15.1"/>
	<text transform="matrix(1 0 0 1 -51.3843 58.0019)" font-family="'ArialMT'" font-size="12.0717">Action Comics</text>
	<rect x="49.2" y="47.9" fill="#3A05FA" width="15.1" height="15.1"/>
	<text transform="matrix(1 0 0 1 69.3325 58.0019)" font-family="'ArialMT'" font-size="12.0717">Detective Comics</text>
</g>
</svg>
